<svg fill="none" height="24" width="149" xmlns="http://www.w3.org/2000/svg"><path clip-rule="evenodd" d="M43.886.92l2.203-.902a.231.231 0 0 1 .318.212v18.018a.23.23 0 0 1-.231.231H43.83a.232.232 0 0 1-.213-.143.228.228 0 0 1-.017-.088V1.347a.46.46 0 0 1 .286-.427zM28.999 12.002c0-3.862 2.937-6.817 6.862-6.817 2.464 0 4.613 1.235 5.691 3.146a.227.227 0 0 1-.088.31l-2.012 1.165a.23.23 0 0 1-.314-.081c-.614-1.101-1.831-1.793-3.302-1.793-2.288 0-4.03 1.737-4.03 4.07 0 2.334 1.742 4.07 4.03 4.07 1.473 0 2.691-.717 3.348-1.801a.236.236 0 0 1 .317-.077l2.01 1.143a.228.228 0 0 1 .088.313c-1.123 1.934-3.274 3.17-5.738 3.17-3.926 0-6.862-2.981-6.862-6.817zm33.76 6.246V5.751a.23.23 0 0 0-.23-.23h-2.346a.232.232 0 0 0-.231.23v1.61c-.988-1.347-2.522-2.176-4.55-2.176-3.535 0-6.473 2.955-6.473 6.818 0 3.836 2.938 6.818 6.474 6.818 2.023 0 3.566-.83 4.549-2.204v1.631a.23.23 0 0 0 .231.231h2.346a.232.232 0 0 0 .23-.23zM55.846 7.854c2.34 0 4.107 1.736 4.107 4.149h-.001c0 2.41-1.774 4.147-4.107 4.147-2.334 0-4.107-1.735-4.107-4.147 0-2.413 1.77-4.149 4.108-4.149zm16.77-2.33v2.554a.228.228 0 0 1-.232.232c-1.79-.045-3.771.858-3.771 3.638v6.296a.23.23 0 0 1-.232.23h-2.346a.231.231 0 0 1-.23-.23V5.751a.228.228 0 0 1 .23-.23h2.35a.232.232 0 0 1 .23.23V7.7c.743-1.68 2.215-2.347 3.768-2.407a.23.23 0 0 1 .233.231zM75.17.553a1.787 1.787 0 0 0 1.25 3.073 1.799 1.799 0 0 0 1.673-1.14 1.786 1.786 0 0 0-.421-1.932 1.797 1.797 0 0 0-2.502 0zm2.423 4.962h-2.346a.232.232 0 0 0-.23.235v12.497a.23.23 0 0 0 .23.231h2.346a.232.232 0 0 0 .232-.23V5.746a.23.23 0 0 0-.232-.23zm13.008 9.311c0 2.593-2.26 3.994-5.069 3.994-2.509 0-4.34-1.088-5.213-2.842a.23.23 0 0 1 .094-.298l2.004-1.161a.23.23 0 0 1 .324.1c.466 1.026 1.46 1.633 2.791 1.633 1.249 0 2.21-.42 2.21-1.45 0-.955-1.196-1.293-2.598-1.69-1.99-.562-4.395-1.241-4.395-3.963 0-2.436 2.104-3.965 4.758-3.965 2.046 0 3.757.906 4.696 2.493a.23.23 0 0 1-.09.316L88.16 9.085a.226.226 0 0 1-.31-.082c-.492-.873-1.349-1.279-2.342-1.279s-1.899.44-1.899 1.374c0 .972 1.189 1.302 2.586 1.69 1.992.552 4.407 1.221 4.407 4.04zM93.062.795a1.785 1.785 0 0 0 .223 2.257 1.798 1.798 0 0 0 2.263.224 1.789 1.789 0 0 0 .763-1.835A1.787 1.787 0 0 0 94.903.035a1.798 1.798 0 0 0-1.841.76zm2.827 4.789a.232.232 0 0 0-.164-.068H93.38a.23.23 0 0 0-.23.235v12.497a.228.228 0 0 0 .23.231h2.346a.232.232 0 0 0 .232-.23V5.746a.23.23 0 0 0-.068-.163zm16.048-.068a.231.231 0 0 1 .231.23v12.136c0 4.175-3.276 6.118-6.681 6.118-2.767 0-4.925-.995-6.052-2.938a.23.23 0 0 1 .087-.312l2.016-1.167a.23.23 0 0 1 .315.083c.585 1.02 1.563 1.8 3.686 1.8 2.417 0 3.874-1.322 3.874-3.577v-1.581c-.983 1.399-2.526 2.255-4.524 2.255-3.665 0-6.551-2.981-6.551-6.688 0-3.706 2.886-6.688 6.551-6.688 2.002 0 3.536.855 4.524 2.256V5.75a.231.231 0 0 1 .231-.23zm-2.526 6.352c0-2.334-1.768-4.07-4.133-4.07-2.366 0-4.134 1.736-4.134 4.07 0 2.334 1.768 4.07 4.134 4.07 2.365 0 4.135-1.732 4.135-4.066zm17.632 6.38v-7.724c0-3.37-2.08-5.34-4.995-5.332-1.77 0-3.173.647-4.03 1.995V.237a.23.23 0 0 0-.103-.191.234.234 0 0 0-.217-.021l-2.203.902a.466.466 0 0 0-.28.42v16.9c-.001.03.005.06.017.088a.214.214 0 0 0 .05.075.222.222 0 0 0 .163.068h2.346a.23.23 0 0 0 .231-.231V11.53c0-2.644 1.455-3.733 3.302-3.733 1.768 0 2.911 1.037 2.911 3.007v7.443c0 .03.006.06.017.089a.237.237 0 0 0 .213.143h2.346a.23.23 0 0 0 .232-.232zm6.906-10.032v6.222c0 1.595 1.009 1.633 2.98 1.54a.232.232 0 0 1 .243.229v2.07a.232.232 0 0 1-.206.23c-4.165.455-5.826-.753-5.826-4.069V8.216h-2.16a.23.23 0 0 1-.231-.229V5.748a.23.23 0 0 1 .231-.23h2.16v-2.38a.463.463 0 0 1 .281-.42l2.202-.904a.235.235 0 0 1 .217.021.23.23 0 0 1 .103.192v3.498h2.992a.23.23 0 0 1 .231.23v2.239c0 .03-.006.06-.017.088a.23.23 0 0 1-.126.124.229.229 0 0 1-.088.017zm9.98 10.605c2.808 0 5.07-1.401 5.07-3.994 0-2.818-2.416-3.487-4.409-4.04-1.397-.387-2.586-.717-2.586-1.689 0-.933.884-1.374 1.899-1.374.993 0 1.85.406 2.342 1.279a.225.225 0 0 0 .31.082l1.954-1.091a.23.23 0 0 0 .09-.316c-.939-1.587-2.651-2.493-4.696-2.493-2.654 0-4.758 1.529-4.758 3.965 0 2.722 2.405 3.401 4.394 3.964 1.403.396 2.599.734 2.599 1.688 0 1.031-.961 1.451-2.209 1.451-1.331 0-2.325-.607-2.792-1.633a.227.227 0 0 0-.233-.13.236.236 0 0 0-.09.03l-2.005 1.16a.229.229 0 0 0-.105.131.226.226 0 0 0 .011.168c.873 1.754 2.704 2.842 5.214 2.842z" fill="#1a1a1a" fill-rule="evenodd"/><path d="M12.52 9.658h9.344a.133.133 0 0 0 .13-.096.136.136 0 0 0 .004-.057 11.127 11.127 0 0 0-3.137-6.353A11.036 11.036 0 0 0 12.54.002a.134.134 0 0 0-.153.134v9.388a.135.135 0 0 0 .134.134z" fill="#9f3852"/><path d="M12.386 12.475v9.388a.136.136 0 0 0 .045.103.133.133 0 0 0 .108.032 11.036 11.036 0 0 0 6.322-3.151 11.127 11.127 0 0 0 3.137-6.353.136.136 0 0 0-.078-.142.133.133 0 0 0-.056-.011H12.52a.134.134 0 0 0-.134.134z" fill="#0a8577"/><path d="M9.716.137a.135.135 0 0 0-.152-.134 11.032 11.032 0 0 0-6.836 3.695A11.129 11.129 0 0 0 0 11.001c0 2.685.97 5.28 2.728 7.302A11.031 11.031 0 0 0 9.564 22a.134.134 0 0 0 .152-.135z" fill="#fbbe37"/></svg>