<svg height="374" width="321" xmlns="http://www.w3.org/2000/svg"><g fill="none"><path d="M225.561.007H16.918C7.57.007 0 7.58 0 16.916v253.712c0 9.34 7.57 16.91 16.918 16.91H270.62c9.339 0 16.91-7.57 16.91-16.91V58.173c0-3.746-1.03-5.084-2.787-6.849-9.795-9.793-42.224-42.225-45.974-45.972C234.35.931 232.361.007 225.561.007" fill="#f47216"/><path d="M215.584 242.296c-15.259 0-27.636-12.364-27.636-27.637 0-15.268 12.377-27.632 27.636-27.632 15.268 0 27.644 12.364 27.644 27.632 0 15.273-12.376 27.637-27.644 27.637m0-81.027c-29.484 0-53.396 23.907-53.396 53.39 0 29.477 23.912 53.391 53.396 53.391 29.501 0 53.388-23.914 53.388-53.391 0-29.483-23.887-53.39-53.388-53.39m-84.967 64.727c-1.368.92-3.454 2.955-4.358 4.304-4.914 7.297-13.399 11.996-22.874 11.996-15.26 0-27.636-12.364-27.636-27.637 0-15.268 12.376-27.632 27.636-27.632 9.475 0 17.96 4.698 22.874 11.996.904 1.353 2.99 3.381 4.358 4.305 6.563 4.413 16.788 4.327 25.531 3.556-3.773-25.787-25.933-45.615-52.763-45.615-29.503 0-53.394 23.907-53.394 53.39 0 29.477 23.89 53.391 53.394 53.391 26.83 0 48.99-19.826 52.763-45.614-8.743-.777-18.968-.873-25.53 3.56m-87.416 23.96c0 6.804-5.52 12.323-12.325 12.323-6.802 0-12.32-5.52-12.32-12.323 0-6.806 5.518-12.323 12.32-12.323 6.804 0 12.325 5.517 12.325 12.323" fill="#fff"/><path d="M301.117 287.308v-9.928h-3.546v-2.024h9.494v2.024h-3.537v9.928zm7.468 0v-11.952h3.615l2.165 8.151 2.147-8.151h3.616v11.952h-2.24v-9.411l-2.371 9.411h-2.326l-2.36-9.411v9.411z" fill="#f47216"/><path d="M85.813 337.695c0 1.986.51 3.514 1.533 4.584 1.021 1.069 2.487 1.604 4.397 1.604 3.896 0 5.843-2.082 5.843-6.246 0-2.062-.482-3.652-1.446-4.769-.965-1.118-2.43-1.676-4.397-1.676-1.948 0-3.423.555-4.426 1.662-1.002 1.107-1.504 2.72-1.504 4.84zm-2.893 26.354c0 1.45.653 2.567 1.962 3.35 1.308.784 3.146 1.176 5.514 1.176 3.667 0 6.398-.526 8.193-1.575 1.795-1.05 2.693-2.445 2.693-4.183 0-1.374-.492-2.354-1.475-2.936-.984-.584-2.813-.874-5.486-.874h-5.1c-1.928 0-3.46.453-4.596 1.361-1.138.906-1.705 2.135-1.705 3.681zm24.893-36.609v3.695l-5.414 1.002c.496.67.907 1.49 1.232 2.464a9.72 9.72 0 0 1 .487 3.094c0 3.265-1.127 5.834-3.38 7.705-2.254 1.873-5.357 2.808-9.31 2.808-1.012 0-1.93-.076-2.75-.23-1.452.9-2.177 1.948-2.177 3.152 0 .726.338 1.27 1.017 1.632.677.363 1.924.545 3.738.545h5.528c3.495 0 6.15.745 7.964 2.235 1.814 1.489 2.721 3.637 2.721 6.445 0 3.589-1.48 6.358-4.44 8.306-2.96 1.949-7.238 2.923-12.833 2.923-4.316 0-7.61-.766-9.883-2.292-2.272-1.53-3.409-3.705-3.409-6.53 0-1.949.616-3.587 1.848-4.914 1.232-1.326 2.955-2.25 5.17-2.764-.897-.381-1.638-.997-2.22-1.848-.582-.85-.873-1.743-.873-2.679 0-1.184.334-2.185 1.002-3.008.668-.82 1.662-1.632 2.98-2.434-1.643-.705-2.975-1.856-3.996-3.452-1.023-1.594-1.533-3.46-1.533-5.6 0-3.438 1.083-6.102 3.251-7.992 2.168-1.891 5.257-2.836 9.267-2.836.897 0 1.838.062 2.822.187.983.123 1.723.253 2.22.386zm9.447 15.784c0 7.314 2.703 10.97 8.107 10.97 5.347 0 8.021-3.656 8.021-10.97 0-7.237-2.693-10.857-8.078-10.857-2.827 0-4.875.936-6.144 2.806-1.27 1.874-1.906 4.555-1.906 8.05zm23.06 0c0 5.175-1.327 9.214-3.981 12.116-2.655 2.904-6.35 4.355-11.086 4.355-2.96 0-5.577-.669-7.85-2.006-2.272-1.335-4.02-3.254-5.242-5.757-1.222-2.501-1.833-5.404-1.833-8.708 0-5.137 1.318-9.148 3.953-12.032 2.636-2.883 6.35-4.325 11.144-4.325 4.583 0 8.211 1.475 10.884 4.425 2.674 2.95 4.011 6.93 4.011 11.932zm5.265 12.318c0-1.394.362-2.465 1.088-3.209.727-.745 1.776-1.117 3.151-1.117 1.393 0 2.453.387 3.18 1.16s1.088 1.83 1.088 3.166c0 1.355-.367 2.43-1.101 3.222-.738.792-1.792 1.188-3.167 1.188s-2.424-.392-3.15-1.173c-.727-.783-1.089-1.863-1.089-3.237m28.44 4.153c-4.794 0-8.437-1.399-10.929-4.196-2.492-2.798-3.737-6.814-3.737-12.047 0-5.328 1.302-9.424 3.909-12.288 2.607-2.865 6.373-4.297 11.301-4.297 3.342 0 6.35.62 9.023 1.861l-2.033 5.415c-2.847-1.107-5.195-1.662-7.047-1.662-5.481 0-8.221 3.638-8.221 10.914 0 3.553.682 6.221 2.048 8.006 1.364 1.787 3.365 2.68 6.001 2.68 2.997 0 5.833-.745 8.508-2.236v5.874a13.249 13.249 0 0 1-3.853 1.517c-1.366.306-3.022.459-4.97.459m19.846-16.471c0 7.314 2.702 10.97 8.106 10.97 5.347 0 8.022-3.656 8.022-10.97 0-7.237-2.692-10.857-8.079-10.857-2.827 0-4.875.936-6.144 2.806-1.27 1.874-1.905 4.555-1.905 8.05zm23.06 0c0 5.175-1.328 9.214-3.982 12.116-2.654 2.904-6.35 4.355-11.085 4.355-2.961 0-5.577-.669-7.85-2.006-2.273-1.335-4.02-3.254-5.242-5.757-1.223-2.501-1.833-5.404-1.833-8.708 0-5.137 1.317-9.148 3.953-12.032 2.636-2.883 6.35-4.325 11.143-4.325 4.584 0 8.212 1.475 10.885 4.425s4.01 6.93 4.01 11.932z" fill="#7e7e7f"/></g></svg>