<svg height="132" width="400" xmlns="http://www.w3.org/2000/svg"><g fill="none"><path d="M65.81 0C29.172-.098 0 29.198 0 66.04c0 36.648 28.9 65.579 65.491 65.579 36.771 0 66.278-29.363 66.13-65.81C131.464 29.506 102.066.093 65.81 0z" fill="#d0021b"/><g fill="#fff" transform="translate(43.188 22.622)"><path d="M35.003 16.792c-1.79 0-3.29 2.313-3.29 5.141v17.861c0 8.592-4.68 12.396-12.073 12.396-6.658 0-9.573-7.614-9.573-7.614-1.028-2.633-1.78-7.1-1.78-9.933V21.938c0-2.833-1.506-5.141-3.295-5.141s-3.295 2.314-3.295 5.141v17.743c0 12.057 7.609 16.607 17.815 16.607 5.588 0 10.005-3.265 12.57-6.417v24.067H7.033c-2.601 0-5.5.684-6.442 1.46s.406 1.6 3.003 1.785l29.933 2.17c5.141.349 5.141-3.404 5.141-5.302V24.566c0-.725-.272-7.774-3.665-7.774z"/><circle cx="34.968" cy="5.345" r="4.781" transform="rotate(-1.07 34.968 5.345)"/></g><path d="M191.039 87.275c-4.74 0-8.386-1.703-10.936-5.11h-.386l.129 1.316a43.59 43.59 0 0 1 .257 4.468v14.503h-5.81V51.326h4.761l.771 4.823h.257a12.509 12.509 0 0 1 4.761-4.18 14.319 14.319 0 0 1 6.237-1.285c4.586 0 8.15 1.59 10.694 4.771 2.543 3.18 3.82 7.66 3.83 13.44 0 5.765-1.275 10.267-3.825 13.506-2.55 3.24-6.13 4.864-10.74 4.874zm-.967-31.748c-3.496 0-6.02.985-7.573 2.956-1.553 1.971-2.352 5.07-2.396 9.296v1.116c0 4.798.793 8.255 2.38 10.37 1.587 2.115 4.158 3.18 7.712 3.198a7.964 7.964 0 0 0 6.931-3.6c1.659-2.399 2.49-5.744 2.494-10.035.003-4.292-.828-7.587-2.494-9.887-1.656-2.276-4.007-3.414-7.054-3.414zm41.224-4.843a19.99 19.99 0 0 1 4.149.385l-.71 5.337a17.167 17.167 0 0 0-3.825-.452 9.409 9.409 0 0 0-5.193 1.542 10.54 10.54 0 0 0-3.748 4.262 13.368 13.368 0 0 0-1.347 6.031v18.843h-5.79V51.326h4.762l.643 6.463h.257a15.183 15.183 0 0 1 4.791-5.306 10.766 10.766 0 0 1 6.01-1.8zm31.897 35.948l-1.126-5.018h-.257c-1.759 2.211-3.51 3.707-5.255 4.489a16.242 16.242 0 0 1-6.606 1.172c-3.476 0-6.2-.912-8.17-2.735-1.97-1.824-2.956-4.394-2.956-7.712 0-7.157 5.655-10.909 16.966-11.255l5.98-.22v-2.114c0-2.68-.58-4.658-1.738-5.933s-3.013-1.913-5.563-1.913a16.452 16.452 0 0 0-5.29.838 43.702 43.702 0 0 0-4.68 1.862l-1.768-4.34a26.57 26.57 0 0 1 5.82-2.22 25.234 25.234 0 0 1 6.242-.803c4.264 0 7.436.943 9.516 2.828 2.081 1.885 3.121 4.888 3.121 9.008v24.066zm-11.928-4.02c3.232 0 5.777-.874 7.635-2.622s2.79-4.23 2.797-7.445v-3.183l-5.209.227c-4.051.147-7.004.79-8.858 1.928s-2.782 2.929-2.782 5.372c0 1.841.566 3.26 1.687 4.242 1.12.982 2.694 1.48 4.73 1.48zm38.874-.062a18.37 18.37 0 0 0 2.637-.226 12.03 12.03 0 0 0 2.283-.514v4.437c-.805.311-1.638.542-2.488.689-1.13.226-2.278.34-3.43.34-6.9 0-10.35-3.634-10.35-10.9V55.81h-4.986v-2.75l5.048-2.314 2.314-7.522h3.445v8.102h10.19v4.5h-10.19V76.21c0 2.056.483 3.599 1.46 4.699a5.188 5.188 0 0 0 4.067 1.64zm11.511-40.776c0-1.286.328-2.218.982-2.797a3.738 3.738 0 0 1 4.792 0c.686.58 1.028 1.511 1.028 2.797 0 1.265-.339 2.2-1.028 2.797a3.64 3.64 0 0 1-4.792 0c-.653-.597-.982-1.532-.982-2.797zm6.242 44.858h-5.79V51.326h5.79zm16.977 0h-5.79V36.596h5.79zm10.741-44.858c0-1.286.323-2.216.981-2.797a3.738 3.738 0 0 1 4.792 0c.686.58 1.028 1.511 1.028 2.797 0 1.265-.339 2.2-1.028 2.797a3.64 3.64 0 0 1-4.792 0c-.658-.597-.982-1.532-.982-2.797zm6.236 44.858h-5.79V51.326h5.79zm27.912.643c-4.74 0-8.385-1.703-10.935-5.11h-.386l.129 1.316a43.59 43.59 0 0 1 .257 4.468v14.503h-5.784V51.326h4.755l.772 4.823h.257a12.509 12.509 0 0 1 4.76-4.18 14.334 14.334 0 0 1 6.237-1.285c4.593 0 8.158 1.59 10.694 4.771 2.537 3.18 3.806 7.66 3.81 13.44 0 5.765-1.275 10.267-3.825 13.506-2.55 3.24-6.13 4.864-10.74 4.874zm-.966-31.748c-3.49 0-6.014.985-7.573 2.956s-2.359 5.07-2.396 9.296v1.116c0 4.798.793 8.255 2.38 10.37s4.158 3.18 7.712 3.198a7.959 7.959 0 0 0 6.93-3.6c1.663-2.399 2.494-5.744 2.494-10.035s-.834-7.58-2.504-9.867c-1.648-2.29-3.996-3.434-7.043-3.434zm24.313-13.753c0-1.286.326-2.218.977-2.797a3.738 3.738 0 0 1 4.792 0c.679.58 1.028 1.511 1.028 2.797 0 1.285-.334 2.2-1.028 2.797a3.64 3.64 0 0 1-4.792 0c-.653-.597-.977-1.532-.977-2.797zm6.237 44.858h-5.79V51.326h5.79z" fill="#000"/></g></svg>